<svg width="40" height="40" viewBox="0 0 40 40" fill="none" xmlns="http://www.w3.org/2000/svg">
<path d="M15.15 19.0667H7.33333C7.46667 11.2834 9 10.0001 13.7833 7.16672C14.3333 6.83338 14.5167 6.13338 14.1833 5.56672C13.8667 5.01672 13.15 4.83338 12.6 5.16672C6.96667 8.50005 5 10.5334 5 20.2167V29.2001C5 32.0501 7.31667 34.3501 10.15 34.3501H15.15C18.0833 34.3501 20.3 32.1334 20.3 29.2001V24.2001C20.3 21.2834 18.0833 19.0667 15.15 19.0667Z" fill="url(#paint0_linear_2_5543)"/>
<path d="M31.5163 19.3831H23.6996C23.8329 11.5998 25.3663 10.3165 30.1496 7.48312C30.6996 7.14979 30.8829 6.44979 30.5496 5.88312C30.2163 5.33312 29.5163 5.14979 28.9496 5.48312C23.3163 8.81646 21.3496 10.8498 21.3496 20.5498V29.5331C21.3496 32.3831 23.6663 34.6831 26.4996 34.6831H31.4996C34.4329 34.6831 36.6496 32.4665 36.6496 29.5331V24.5331C36.6663 21.5998 34.4496 19.3831 31.5163 19.3831Z" fill="url(#paint1_linear_2_5543)"/>
<defs>
<linearGradient id="paint0_linear_2_5543" x1="22.6228" y1="218.06" x2="-16.8665" y2="216.429" gradientUnits="userSpaceOnUse">
<stop offset="0.25249" stop-color="#40B4A6"/>
<stop offset="0.637527" stop-color="#A6D8D2"/>
</linearGradient>
<linearGradient id="paint1_linear_2_5543" x1="38.9725" y1="218.497" x2="-0.517108" y2="216.867" gradientUnits="userSpaceOnUse">
<stop offset="0.25249" stop-color="#40B4A6"/>
<stop offset="0.637527" stop-color="#A6D8D2"/>
</linearGradient>
</defs>
</svg>
